<svg viewBox="0 0 512 512" fill="none"
  xmlns="http://www.w3.org/2000/svg">
  <path d="M512.085 256.966C512.085 398.351 397.47 512.966 256.085 512.966C114.699 512.966 0.0847168 398.351 0.0847168 256.966C0.0847168 115.58 114.699 0.965576 256.085 0.965576C397.47 0.965576 512.085 115.58 512.085 256.966ZM226.473 392.516L416.409 202.58C422.858 196.13 422.858 185.673 416.409 179.223L393.052 155.866C386.602 149.416 376.145 149.416 369.694 155.866L214.794 310.765L142.475 238.446C136.026 231.996 125.568 231.996 119.117 238.446L95.7606 261.803C89.311 268.252 89.311 278.71 95.7606 285.16L203.115 392.514C209.566 398.965 220.023 398.965 226.473 392.516V392.516Z" fill="black"/>
</svg>
