<svg viewBox="0 0 470 512" fill="none"
  xmlns="http://www.w3.org/2000/svg">
  <path d="M357.914 191.995H246.438V247.999C246.438 287.703 222.749 320.005 193.633 320.005C164.517 320.005 140.829 287.703 140.829 247.999V126.389L93.2313 165.392C79.0767 176.893 70.4227 197.795 70.4227 220.197V267.501L11.7511 313.705C0.530103 322.506 -3.35689 342.107 3.17033 357.409L61.8419 496.02C68.2958 511.322 82.6704 516.522 93.8913 507.721L169.724 448.016H269.906C295.795 448.016 316.843 419.314 316.843 384.011H328.578C341.559 384.011 352.046 369.71 352.046 352.008V288.003H357.914C367.668 288.003 375.515 277.302 375.515 264.001V215.997C375.515 202.695 367.668 191.995 357.914 191.995ZM466.236 154.591L407.565 15.9797C401.111 0.678425 386.736 -4.52201 375.515 4.27873L299.682 63.9838H224.729C215.928 63.9838 207.348 67.3841 199.867 73.6846L175.298 94.5864C168.404 100.387 164.297 110.688 164.297 121.689V247.999C164.297 270.101 177.425 288.003 193.633 288.003C209.841 288.003 222.969 270.101 222.969 247.999V159.992H357.914C380.576 159.992 398.984 185.094 398.984 215.997V244.499L457.655 198.295C468.876 189.394 472.69 169.893 466.236 154.591Z" fill="black"/>
</svg>
