<svg viewBox="0 0 434 512" fill="none"
  xmlns="http://www.w3.org/2000/svg">
  <path d="M217.011 15.2014C217.844 19.9014 233.778 109.701 233.778 144.001C233.778 196.301 204.827 233.601 162.024 248.601L175.459 486.7C176.188 500.4 164.836 512 150.464 512H83.8136C69.5462 512 58.0905 500.5 58.8195 486.7L72.2538 248.601C29.3473 233.601 0.5 196.201 0.5 144.001C0.5 109.601 16.4337 19.9014 17.2669 15.2014C20.5994 -5.09856 64.4432 -5.39856 67.1509 16.3014V157.501C68.5047 160.901 82.8763 160.701 83.8136 157.501C85.2716 132.201 92.0408 18.3014 92.145 15.7014C95.5817 -5.09856 138.696 -5.09856 142.029 15.7014C142.237 18.4014 148.902 132.201 150.36 157.501C151.298 160.701 165.773 160.901 167.023 157.501V16.3014C169.731 -5.29856 213.679 -5.09856 217.011 15.2014V15.2014ZM341.149 300.901L325.527 486C324.278 500 335.837 512 350.417 512H408.737C422.588 512 433.731 501.3 433.731 488V24.0014C433.731 10.8014 422.588 0.00142925 408.737 0.00142925C322.82 0.00142925 178.166 178.501 341.149 300.901Z" fill="black"/>
</svg>
