<svg viewBox="0 0 512 510" fill="none"
  xmlns="http://www.w3.org/2000/svg">
  <path d="M48 0.209473C38.5065 0.209473 29.2262 3.65743 21.3326 10.1173C13.4391 16.5772 7.28681 25.7589 3.6538 36.5014C0.0207977 47.2438 -0.929762 59.0644 0.922328 70.4685C2.77442 81.8726 7.34598 92.348 14.0589 100.57C20.7718 108.792 29.3246 114.391 38.6357 116.659C47.9468 118.928 57.598 117.764 66.3688 113.314C75.1397 108.864 82.6363 101.329 87.9106 91.6611C93.1849 81.9931 96 70.6267 96 58.9992C96 43.4072 90.9429 28.4538 81.9411 17.4286C72.9394 6.40338 60.7304 0.209473 48 0.209473ZM48 196.175C38.5065 196.175 29.2262 199.623 21.3326 206.083C13.4391 212.543 7.28681 221.725 3.6538 232.467C0.0207977 243.21 -0.929762 255.03 0.922328 266.434C2.77442 277.839 7.34598 288.314 14.0589 296.536C20.7718 304.758 29.3246 310.357 38.6357 312.625C47.9468 314.894 57.598 313.729 66.3688 309.28C75.1397 304.83 82.6363 297.295 87.9106 287.627C93.1849 277.959 96 266.593 96 254.965C96 239.373 90.9429 224.42 81.9411 213.394C72.9394 202.369 60.7304 196.175 48 196.175ZM48 392.141C38.5065 392.141 29.2262 395.589 21.3326 402.049C13.4391 408.509 7.28681 417.691 3.6538 428.433C0.0207977 439.176 -0.929762 450.996 0.922328 462.4C2.77442 473.804 7.34598 484.28 14.0589 492.502C20.7718 500.723 29.3246 506.323 38.6357 508.591C47.9468 510.86 57.598 509.695 66.3688 505.246C75.1397 500.796 82.6363 493.261 87.9106 483.593C93.1849 473.925 96 462.558 96 450.931C96 435.339 90.9429 420.386 81.9411 409.36C72.9394 398.335 60.7304 392.141 48 392.141ZM496 411.738H176C171.757 411.738 167.687 413.802 164.686 417.477C161.686 421.153 160 426.137 160 431.334V470.528C160 475.725 161.686 480.709 164.686 484.384C167.687 488.06 171.757 490.124 176 490.124H496C500.243 490.124 504.313 488.06 507.314 484.384C510.314 480.709 512 475.725 512 470.528V431.334C512 426.137 510.314 421.153 507.314 417.477C504.313 413.802 500.243 411.738 496 411.738ZM496 19.8061H176C171.757 19.8061 167.687 21.8707 164.686 25.5458C161.686 29.2208 160 34.2053 160 39.4026V78.5958C160 83.7932 161.686 88.7776 164.686 92.4527C167.687 96.1278 171.757 98.1924 176 98.1924H496C500.243 98.1924 504.313 96.1278 507.314 92.4527C510.314 88.7776 512 83.7932 512 78.5958V39.4026C512 34.2053 510.314 29.2208 507.314 25.5458C504.313 21.8707 500.243 19.8061 496 19.8061V19.8061ZM496 215.772H176C171.757 215.772 167.687 217.837 164.686 221.512C161.686 225.187 160 230.171 160 235.369V274.562C160 279.759 161.686 284.744 164.686 288.419C167.687 292.094 171.757 294.158 176 294.158H496C500.243 294.158 504.313 292.094 507.314 288.419C510.314 284.744 512 279.759 512 274.562V235.369C512 230.171 510.314 225.187 507.314 221.512C504.313 217.837 500.243 215.772 496 215.772Z" fill="black"/>
</svg>
