<svg viewBox="0 0 335 512" fill="none"
  xmlns="http://www.w3.org/2000/svg">
  <path d="M285.654 0.543091H51.2191C23.4845 0.543091 0.98291 22.0431 0.98291 48.5431V464.543C0.98291 491.043 23.4845 512.543 51.2191 512.543H285.654C313.389 512.543 335.891 491.043 335.891 464.543V48.5431C335.891 22.0431 313.389 0.543091 285.654 0.543091ZM168.437 480.543C149.912 480.543 134.946 466.243 134.946 448.543C134.946 430.843 149.912 416.543 168.437 416.543C186.961 416.543 201.927 430.843 201.927 448.543C201.927 466.243 186.961 480.543 168.437 480.543ZM285.654 372.543C285.654 379.143 280.003 384.543 273.095 384.543H63.7781C56.8706 384.543 51.2191 379.143 51.2191 372.543V60.5431C51.2191 53.9431 56.8706 48.5431 63.7781 48.5431H273.095C280.003 48.5431 285.654 53.9431 285.654 60.5431V372.543Z" fill="black"/>
</svg>
