<svg viewBox="0 0 512 510" fill="none"
  xmlns="http://www.w3.org/2000/svg">
  <path d="M500.377 118.024L446.427 14.9271C441.606 5.67229 433.044 0 423.9 0H88.0676C78.9237 0 70.3616 5.67229 65.5403 14.9271L11.591 118.024C-16.2565 171.263 8.43215 245.302 60.4695 253.761C64.2102 254.358 68.0341 254.656 71.8579 254.656C96.4634 254.656 118.243 241.719 133.205 221.717C148.168 241.719 170.031 254.656 194.553 254.656C219.159 254.656 240.938 241.719 255.901 221.717C270.863 241.719 292.726 254.656 317.248 254.656C341.854 254.656 363.633 241.719 378.596 221.717C393.642 241.719 415.421 254.656 439.943 254.656C443.85 254.656 447.591 254.358 451.332 253.761C503.535 245.401 528.307 171.363 500.377 118.024V118.024ZM440.11 286.6C431.797 286.6 423.567 285.107 415.587 282.819V382.133H96.3803V282.819C88.4001 285.008 80.1706 286.6 71.8579 286.6C66.8703 286.6 61.7995 286.202 56.8951 285.406C52.24 284.61 47.668 283.316 43.2623 281.823V477.667C43.2623 495.281 55.1494 509.511 69.8628 509.511H442.271C456.984 509.511 468.871 495.281 468.871 477.667V281.823C464.383 283.416 459.894 284.709 455.239 285.406C450.168 286.202 445.18 286.6 440.11 286.6Z" fill="black"/>
</svg>
